<svg xmlns="http://www.w3.org/2000/svg" width="387.337" height="414.801" viewBox="0 0 387.337 414.801">
  <path id="gear_2" data-name="gear 2" d="M417.548,1695.434a24.191,24.191,0,0,1-10.052-2.174,25.7,25.7,0,0,1-8.208-5.926,27.747,27.747,0,0,1-5.534-8.79,29.175,29.175,0,0,1-2.029-10.764v-33.528a136.246,136.246,0,0,1-31.287-13.995l-22.563,24.164a25.742,25.742,0,0,1-8.587,6.107,24.462,24.462,0,0,1-19.536,0,25.733,25.733,0,0,1-8.587-6.107l-18.355-19.657a27.845,27.845,0,0,1-5.7-9.2,29.734,29.734,0,0,1,0-20.921,27.863,27.863,0,0,1,5.7-9.2l22.957-24.585a157.963,157.963,0,0,1-11.847-31.351H262.613a24.2,24.2,0,0,1-10.052-2.173,25.726,25.726,0,0,1-8.208-5.927,27.748,27.748,0,0,1-5.534-8.79,29.175,29.175,0,0,1-2.029-10.764v-27.653a29.174,29.174,0,0,1,2.029-10.764,27.734,27.734,0,0,1,5.534-8.789,25.716,25.716,0,0,1,8.208-5.927,24.209,24.209,0,0,1,10.052-2.173h31.307a157.623,157.623,0,0,1,12.458-32.431l-23.568-25.239a27.85,27.85,0,0,1-5.7-9.2,29.734,29.734,0,0,1,0-20.921,27.859,27.859,0,0,1,5.7-9.2l18.355-19.656a25.72,25.72,0,0,1,8.587-6.106,24.453,24.453,0,0,1,19.536,0,25.739,25.739,0,0,1,8.587,6.106l23.567,25.241a136.339,136.339,0,0,1,30.282-13.343v-33.526a29.182,29.182,0,0,1,2.029-10.765,27.747,27.747,0,0,1,5.534-8.79,25.7,25.7,0,0,1,8.208-5.926,24.191,24.191,0,0,1,10.052-2.173h25.821a24.191,24.191,0,0,1,10.052,2.173,25.717,25.717,0,0,1,8.209,5.926,27.762,27.762,0,0,1,5.533,8.79,29.183,29.183,0,0,1,2.029,10.765v33.526a136.357,136.357,0,0,1,29.276,12.688l22.957-24.586a25.738,25.738,0,0,1,8.587-6.106,24.455,24.455,0,0,1,19.537,0,25.73,25.73,0,0,1,8.587,6.106l18.355,19.656a27.842,27.842,0,0,1,5.7,9.2,29.735,29.735,0,0,1,0,20.921,27.832,27.832,0,0,1-5.7,9.2l-22.563,24.162A157.358,157.358,0,0,1,567,1446.554H598.3a24.205,24.205,0,0,1,10.052,2.173,25.725,25.725,0,0,1,8.208,5.927,27.716,27.716,0,0,1,5.533,8.789,29.174,29.174,0,0,1,2.029,10.764v27.653a29.175,29.175,0,0,1-2.029,10.764,27.729,27.729,0,0,1-5.533,8.79,25.715,25.715,0,0,1-8.208,5.927,24.193,24.193,0,0,1-10.052,2.173H567a157.675,157.675,0,0,1-12.457,32.428l21.952,23.509a27.845,27.845,0,0,1,5.7,9.2,29.735,29.735,0,0,1,0,20.921,27.827,27.827,0,0,1-5.7,9.2l-18.355,19.657a25.756,25.756,0,0,1-8.587,6.107,24.465,24.465,0,0,1-19.537,0,25.755,25.755,0,0,1-8.587-6.107l-21.952-23.51a136.26,136.26,0,0,1-30.281,13.341v33.528a29.176,29.176,0,0,1-2.029,10.764,27.762,27.762,0,0,1-5.533,8.79,25.716,25.716,0,0,1-8.209,5.926,24.191,24.191,0,0,1-10.052,2.174Zm-64.558-207.4c0,45.744,34.753,82.959,77.47,82.959s77.47-37.215,77.47-82.959-34.753-82.96-77.47-82.96S352.99,1442.286,352.99,1488.03Zm38.741,0c0-22.909,17.339-41.48,38.73-41.48s38.73,18.571,38.73,41.48-17.339,41.48-38.73,41.48S391.73,1510.939,391.73,1488.03Z" transform="translate(-236.789 -1280.633)" fill="#fff"/>
</svg>
